# xmcd CD database file generated by Grip 3.0.5
# 
# Track frame offsets:
#       150
#       14005
#       31987
#       50740
#       60445
#       87765
#       105700
#       124387
#       143262
#       158910
#       177470
#       203312
#       221935
# 
# Disc length: 3112 seconds
# 
# Revision: 3
# Processed by: cddbd v1.4PL0 Copyright (c) Steve Scherf et al.
# Submitted via: Grip 3.0.5
# 
DISCID=b30c260d
DTITLE=Tracy Chapman - Live
DYEAR=1988
DGENRE=Folk
TTITLE0=Why ?
TTITLE1=For my lover
TTITLE2=Across the lines
TTITLE3=Behind the Wall
TTITLE4=Fast car
TTITLE5=She's got her ticket
TTITLE6=Baby can I hold you
TTITLE7=This time
TTITLE8=For you
TTITLE9=Sweet on
TTITLE10=Mountain o' things
TTITLE11=Talking'bout a revolution
TTITLE12=Born to fight
EXTD=Recorded live at Montreux Jazz Festival  July 1988
EXTT0=
EXTT1=
EXTT2=
EXTT3=
EXTT4=
EXTT5=
EXTT6=
EXTT7=
EXTT8=
EXTT9=
EXTT10=
EXTT11=
EXTT12=
PLAYORDER=
